<?xml version="1.0" standalone="no"?>
<!DOCTYPE svg PUBLIC "-//W3C//DTD SVG 20010904//EN"
 "http://www.w3.org/TR/2001/REC-SVG-20010904/DTD/svg10.dtd">
<svg version="1.0" xmlns="http://www.w3.org/2000/svg"
 width="1200.000000pt" height="685.000000pt" viewBox="0 0 1200.000000 685.000000"
 preserveAspectRatio="xMidYMid meet">

<g transform="translate(0.000000,685.000000) scale(0.100000,-0.100000)"
fill="#000000" stroke="none">
<path d="M6677 5516 l-59 -53 5 -89 c5 -109 29 -213 57 -252 l22 -30 -31 -65
c-17 -36 -31 -68 -31 -71 0 -3 20 -26 44 -51 32 -32 43 -50 39 -65 -8 -29 14
-50 52 -50 27 0 35 5 45 30 7 17 10 46 7 68 -8 47 0 59 40 58 32 -1 33 -3 48
-58 2 -5 4 -10 5 -13 3 -5 6 -19 9 -32 1 -5 5 -2 10 5 6 10 10 9 14 -7 3 -12
1 -19 -3 -16 -5 3 -11 1 -14 -4 -4 -5 3 -12 14 -16 11 -3 20 -11 20 -16 0 -6
5 -7 11 -3 6 3 15 1 19 -5 9 -16 91 28 106 58 6 11 13 18 16 15 4 -3 20 1 36
10 31 16 49 66 36 99 -7 19 -74 42 -164 57 -36 5 -79 13 -97 15 -28 5 -30 8
-24 33 7 24 14 28 67 35 71 10 216 2 244 -13 11 -6 20 -16 20 -23 0 -28 70
-222 90 -249 24 -33 21 -40 -39 -113 -23 -27 -49 -68 -58 -91 l-18 -42 -100
-4 c-55 -2 -107 -6 -115 -9 -8 -2 -14 2 -13 9 4 15 -2 15 -84 -4 -81 -19 -148
-12 -163 17 -8 15 -21 19 -59 19 -26 0 -50 -3 -54 -6 -3 -3 1 -23 8 -44 12
-33 64 -283 80 -383 5 -31 12 -40 42 -52 42 -18 37 -30 -35 -71 -26 -15 -63
-41 -82 -59 -19 -17 -65 -45 -103 -60 -37 -15 -72 -34 -78 -42 -6 -7 -17 -13
-23 -13 -6 0 -51 -21 -101 -45 -49 -25 -95 -45 -103 -45 -7 0 -44 -20 -82 -45
-66 -44 -70 -49 -91 -113 -12 -37 -25 -71 -29 -77 -8 -11 -40 -105 -39 -114 0
-3 13 20 28 53 16 33 31 54 35 47 4 -6 4 -17 -1 -23 -4 -7 -6 -21 -5 -30 2
-10 -2 -18 -7 -18 -6 0 -11 -12 -11 -26 0 -14 -5 -35 -11 -47 -10 -21 -10 -21
5 -3 9 11 16 16 17 10 0 -5 4 1 10 14 5 13 13 20 19 17 13 -8 13 -85 0 -85
-11 0 -14 -30 -2 -30 4 0 15 -13 26 -28 10 -15 -12 4 -50 41 -49 50 -69 65
-76 55 -4 -7 -38 -105 -74 -218 -36 -113 -91 -281 -121 -375 -36 -113 -56
-193 -60 -240 -3 -42 -14 -92 -29 -126 -13 -31 -27 -88 -30 -128 l-7 -73 34 7
c19 4 63 18 98 32 72 29 81 24 81 -37 0 -32 -4 -37 -50 -57 l-49 -22 4 -68 c4
-79 12 -103 31 -103 8 0 14 -9 14 -19 0 -11 6 -21 12 -23 8 -3 13 -26 13 -66
0 -44 4 -63 14 -67 20 -8 24 0 11 24 -9 18 -8 21 11 21 18 0 21 -5 17 -31 -3
-20 0 -33 9 -36 9 -4 10 -9 3 -18 -10 -12 14 -41 55 -63 14 -8 15 -11 5 -11
-17 0 -80 54 -80 69 0 5 -4 9 -9 7 -5 -1 -33 16 -61 38 -227 175 -290 236
-290 280 0 54 -19 28 -54 -73 -47 -139 -49 -204 -6 -288 16 -32 36 -86 44
-118 13 -49 27 -71 78 -126 35 -37 85 -92 111 -123 26 -31 84 -87 129 -124
279 -235 351 -301 344 -319 -3 -8 -12 -11 -22 -7 -14 5 -16 3 -11 -11 6 -14 3
-16 -13 -11 -11 4 -20 3 -20 -2 0 -19 -113 -57 -163 -55 -20 1 -60 28 -144
100 -35 29 -63 48 -63 43 0 -6 -6 -8 -13 -5 -7 2 -22 -4 -32 -16 -10 -11 -24
-20 -32 -20 -7 0 -13 -4 -13 -10 0 -5 -9 -10 -20 -10 -10 0 -23 -6 -27 -13
-11 -16 -76 -58 -135 -85 -25 -12 -49 -26 -53 -32 -3 -5 -13 -10 -22 -10 -9 0
-24 -6 -32 -14 -9 -7 -41 -26 -71 -42 -30 -16 -59 -35 -63 -41 -4 -7 -13 -13
-19 -13 -6 0 -27 -10 -47 -22 -19 -13 -60 -32 -90 -44 -30 -11 -56 -25 -58
-31 -5 -13 94 -22 378 -33 129 -4 257 -4 296 1 79 10 188 11 220 3 12 -3 31
-22 43 -41 29 -50 101 -79 256 -103 71 -11 159 -20 195 -20 66 0 425 43 489
59 19 5 80 12 135 15 155 10 403 44 477 66 36 11 72 20 80 20 7 0 39 35 71 78
32 42 77 99 101 126 l43 49 49 -28 c27 -16 50 -29 52 -31 7 -4 -32 -153 -50
-191 -18 -39 -38 -57 -38 -34 0 5 -15 13 -32 16 -18 4 -37 11 -43 15 -23 17
-75 22 -89 7 -13 -13 -6 -17 57 -36 40 -11 86 -21 103 -21 17 0 67 -9 110 -19
44 -11 131 -24 194 -30 308 -29 455 -41 560 -47 111 -6 118 -5 210 26 107 36
205 82 234 110 15 14 20 37 24 97 5 92 -10 157 -41 178 -12 8 -85 35 -162 61
-171 57 -236 64 -355 36 -86 -21 -135 -32 -247 -58 -34 -8 -76 -14 -93 -14
-29 0 -21 9 112 127 79 69 181 160 227 202 131 119 489 519 545 609 8 13 46
257 46 293 0 24 -8 18 -79 -54 -84 -86 -93 -88 -117 -31 -8 19 -19 34 -24 34
-6 0 -10 12 -10 28 0 15 -11 59 -24 97 l-24 70 -64 12 c-34 7 -70 10 -80 7 -9
-3 -19 -1 -22 4 -3 5 28 31 69 57 41 27 73 51 71 53 -3 2 -13 -1 -24 -7 -44
-23 -60 -14 -67 37 -14 108 -27 149 -64 205 l-39 59 -6 -39 c-3 -21 -8 -66
-11 -100 -5 -47 -12 -66 -32 -85 -13 -12 -23 -18 -21 -13 2 6 -2 11 -7 13 -6
1 -11 -2 -11 -8 -1 -5 -2 -13 -3 -16 0 -4 -8 -1 -17 6 -13 11 -16 10 -21 -8
-3 -12 -11 -22 -18 -22 -7 0 -18 -6 -25 -14 -6 -8 -18 -12 -25 -10 -8 3 -20
-4 -27 -15 -7 -12 -18 -21 -25 -21 -7 0 -13 -9 -13 -19 0 -25 -16 -36 -24 -16
-3 8 -13 15 -23 15 -10 0 -25 5 -33 11 -12 8 -10 9 10 7 18 -2 25 2 27 17 1
11 0 14 -3 8 -9 -20 -24 -15 -24 8 0 16 -4 19 -20 14 -10 -3 -33 1 -50 10 -27
14 -30 14 -30 0 0 -28 -17 -15 -24 17 -5 26 -2 36 15 48 19 15 19 17 4 30 -11
9 -13 16 -5 24 5 5 10 15 10 20 0 6 -4 4 -10 -4 -5 -8 -12 -12 -15 -8 -8 8 14
187 26 209 13 26 22 116 21 237 0 110 6 128 33 103 6 -4 25 -4 45 1 l35 10
-30 15 c-17 8 -47 33 -68 56 -20 23 -34 34 -31 24 5 -13 2 -16 -10 -11 -9 3
-16 11 -16 18 0 6 -7 3 -15 -7 -7 -11 -11 -26 -8 -34 5 -12 1 -14 -15 -8 -20
6 -22 3 -22 -39 0 -25 4 -46 9 -46 12 0 1 -42 -16 -58 -14 -14 -18 -42 -5 -42
4 0 7 -14 8 -30 1 -17 0 -29 -1 -28 -1 2 -35 66 -74 143 -64 125 -83 170 -65
152 3 -3 18 5 32 19 15 13 30 24 34 24 5 0 8 6 8 13 0 7 18 33 40 57 22 24 43
53 46 65 4 11 12 27 19 35 15 18 28 70 18 70 -5 0 -9 15 -10 34 -2 38 -34 108
-40 89 -3 -8 -15 -10 -34 -6 -22 4 -29 2 -29 -11 0 -9 -7 -16 -16 -16 -14 0
-14 3 -4 15 9 11 10 19 3 26 -10 10 -62 -106 -85 -188 -5 -19 -18 -43 -29 -54
-19 -19 -19 -19 -19 7 0 14 -6 40 -14 57 -7 18 -19 47 -26 65 -16 40 -24 46
-50 32 -22 -12 -26 -40 -8 -58 9 -9 6 -12 -15 -12 -17 0 -27 -5 -27 -14 0 -8
-14 -21 -31 -30 -28 -14 -31 -14 -50 5 -20 20 -54 25 -64 9 -3 -5 1 -10 9 -10
11 0 16 -9 16 -30 0 -23 -4 -30 -20 -30 -12 0 -20 7 -20 16 0 13 -7 15 -34 10
-29 -6 -35 -3 -41 14 -6 20 -35 29 -35 10 0 -5 5 -10 12 -10 7 0 5 -7 -5 -18
-17 -18 -13 -62 5 -62 5 0 2 -7 -6 -16 -9 -8 -21 -12 -27 -8 -6 3 -15 0 -20
-7 -6 -10 -9 -8 -9 9 0 25 -15 29 -36 7 -9 -8 -24 -15 -35 -15 -15 0 -18 5
-14 23 4 14 -1 30 -15 44 -26 29 -25 35 5 27 14 -3 24 -2 23 2 -2 5 0 9 3 9 3
0 13 6 22 13 9 8 21 11 27 7 5 -3 15 5 21 19 12 25 43 43 64 37 6 -1 7 0 3 4
-8 9 34 43 84 69 61 31 100 69 93 89 -4 9 -12 17 -18 17 -6 0 -65 -31 -131
-69 -67 -37 -138 -74 -159 -80 -44 -15 -58 -36 -60 -94 -1 -23 -6 -45 -10 -48
-4 -3 -3 -27 3 -53 6 -27 15 -125 20 -220 5 -94 16 -252 24 -351 8 -99 18
-241 21 -315 7 -133 8 -137 61 -271 38 -96 54 -150 54 -183 0 -60 28 -114 76
-149 l39 -27 -195 0 c-107 0 -304 -5 -436 -11 -229 -11 -313 -9 -342 9 -9 6
-6 23 14 73 15 35 32 84 40 109 14 50 49 244 59 330 4 30 24 165 46 300 22
135 48 301 59 370 11 69 27 173 36 232 16 105 16 107 -5 150 -25 52 -78 305
-92 436 -5 52 -18 120 -29 153 -27 78 -26 103 5 123 41 27 45 21 45 -67 l0
-84 80 -62 c73 -56 177 -118 185 -109 7 7 -18 128 -27 128 -18 0 -38 28 -32
44 3 9 10 16 15 16 5 0 6 12 3 28 -4 21 2 35 30 66 19 22 37 51 41 64 3 13 15
43 25 66 48 103 104 248 126 325 23 83 34 108 34 79 0 -27 31 -118 40 -118 8
0 43 83 56 135 6 24 4 25 -34 25 l-40 0 -2 78 c-2 122 -2 129 16 164 36 72 63
98 100 98 19 0 48 -7 64 -15 33 -17 29 -22 50 73 15 65 8 107 -34 197 -39 84
-56 101 -83 84 -16 -9 -32 -4 -98 30 -170 87 -208 111 -236 144 -22 26 -40 37
-72 42 -23 4 -99 38 -168 76 -70 38 -133 69 -140 69 -8 -1 -40 -25 -72 -54z
m403 -1014 c0 -10 -12 -42 -26 -70 -33 -67 -88 -102 -162 -102 -74 0 -98 14
-116 71 -9 26 -13 54 -10 62 5 14 100 27 199 27 22 1 54 7 70 14 40 19 45 19
45 -2z m-351 -23 c13 -38 14 -59 3 -59 -8 0 -32 65 -32 84 0 19 20 2 29 -25z
m-181 -1026 c17 -33 33 -172 27 -218 -8 -50 -8 -49 63 -59 37 -6 44 -4 51 15
8 22 -7 99 -22 110 -4 3 -11 32 -14 63 l-6 58 29 -15 c16 -8 40 -25 53 -38 22
-21 23 -27 19 -111 -5 -79 -4 -88 12 -88 34 0 70 -39 70 -75 0 -36 -17 -56
-30 -35 -12 19 -60 -14 -60 -40 0 -15 8 -19 38 -22 30 -2 38 -7 40 -27 6 -39
-27 -110 -74 -160 -27 -29 -56 -75 -76 -124 -30 -71 -97 -168 -98 -141 0 16
-35 10 -54 -9 -10 -9 -23 -17 -30 -17 -12 0 -35 -23 -213 -209 -77 -81 -94
-94 -124 -95 -19 0 -39 -7 -45 -15 -10 -12 -16 -11 -40 6 -68 49 -108 105
-124 172 l-16 66 -99 -3 -100 -3 104 46 c57 25 108 45 113 45 6 0 33 16 60 36
27 20 92 54 145 76 261 107 263 109 289 244 17 91 19 138 11 320 -1 39 3 57
17 73 16 18 18 30 12 96 -4 42 -4 80 -1 85 11 17 64 11 73 -7z m842 -187 c0
-3 -4 -8 -10 -11 -5 -3 -10 -1 -10 4 0 6 5 11 10 11 6 0 10 -2 10 -4z m528
-760 c22 -24 91 -113 154 -197 63 -85 138 -180 167 -211 l52 -57 -69 -45 c-83
-54 -311 -168 -322 -161 -30 19 -60 715 -31 715 5 0 27 -20 49 -44z m367 -264
c-3 -3 -11 0 -18 7 -9 10 -8 11 6 5 10 -3 15 -9 12 -12z m-1946 -137 c-1 -76
-6 -135 -11 -135 -14 0 -157 94 -158 103 0 10 151 164 163 166 4 0 7 -60 6
-134z m117 -1170 c18 -14 32 -33 32 -43 0 -9 1 -24 3 -32 6 -21 -29 -23 -134
-7 l-87 12 56 48 c31 26 65 47 77 47 11 0 35 -11 53 -25z"/>
<path d="M7417 4753 c-13 -12 -7 -21 19 -27 34 -9 43 0 18 19 -22 16 -28 18
-37 8z"/>
<path d="M7388 4073 c-2 -10 8 -29 22 -43 14 -14 31 -34 38 -45 11 -18 12 -16
6 15 -10 59 -58 112 -66 73z"/>
<path d="M8743 3323 c3 -10 8 -36 12 -58 3 -22 11 -58 16 -79 l11 -39 20 34
c26 43 20 115 -12 141 -29 23 -53 24 -47 1z"/>
<path d="M7410 3260 c0 -5 4 -10 9 -10 6 0 13 5 16 10 3 6 -1 10 -9 10 -9 0
-16 -4 -16 -10z"/>
<path d="M8490 3138 c0 -27 5 -48 10 -48 13 0 13 60 0 80 -7 11 -10 2 -10 -32z"/>
<path d="M8740 3130 c-9 -6 -10 -10 -3 -10 6 0 15 5 18 10 8 12 4 12 -15 0z"/>
<path d="M8330 2883 c5 -10 14 -30 20 -45 11 -33 29 -35 61 -8 23 18 23 19 4
20 -11 0 -31 12 -44 25 -28 30 -57 35 -41 8z"/>
<path d="M5590 2196 c-6 -8 -19 -12 -28 -9 -15 6 -15 5 -3 -10 14 -18 37 -24
26 -8 -3 5 4 12 15 16 11 3 20 11 20 16 0 14 -16 11 -30 -5z"/>
<path d="M5530 2160 c0 -5 7 -10 15 -10 8 0 15 5 15 10 0 6 -7 10 -15 10 -8 0
-15 -4 -15 -10z"/>
<path d="M5780 1870 c0 -5 5 -10 10 -10 6 0 10 5 10 10 0 6 -4 10 -10 10 -5 0
-10 -4 -10 -10z"/>
</g>
</svg>
